<svg xmlns="http://www.w3.org/2000/svg" version="1.1" xmlns:xlink="http://www.w3.org/1999/xlink" xmlns:svgjs="http://svgjs.com/svgjs" height="42.07468371977819" width="290.25"><defs id="SvgjsDefs1054"></defs><g id="SvgjsG1055" rel="mainfill" name="main_text" xmlns:name="main_text" transform="translate(81.24000000953674,-205.68265936081403)" fill="#ffffff"><path d="M17.63 234.41C17.36 234.03 17.10 233.65 16.87 233.24L16.83 233.12C16.83 232.97 17.14 232.74 17.14 232.55C17.17 232.51 17.17 232.40 17.14 232.25C17.10 232.06 17.10 231.94 17.06 231.87C17.06 231.83 16.79 231.45 16.64 231.07C16.57 231.00 16.53 230.88 16.49 230.73C16.45 230.46 16.72 230.65 16.87 230.27L15.58 230.50L15.12 229.36C14.86 228.75 14.63 228.07 14.44 227.35L13.64 224.73C13.07 223.02 12.69 221.31 12.27 219.52C12.01 218.30 11.63 217.35 11.36 216.18C11.17 216.75 11.44 217.73 11.70 218.76C11.44 218.65 11.17 218.65 10.98 218.23L10.52 216.56C10.49 216.40 10.41 216.33 10.33 216.33C10.22 216.33 10.26 216.75 10.14 216.90C9.99 217.32 9.57 217.20 9.27 217.32L8.17 217.35C8.17 216.94 8.17 216.71 8.13 216.40C8.09 216.25 8.02 216.18 7.98 216.18C7.87 216.18 7.83 216.63 7.64 216.78C7.52 216.90 7.41 216.97 7.22 216.97L6.73 216.94C6.38 216.94 6.04 216.86 5.62 216.75C5.36 216.71 5.24 216.67 5.05 216.67C4.86 216.67 4.67 216.71 4.48 216.78C4.45 218.57 4.29 220.17 4.03 221.95C3.76 223.51 3.46 225.07 3.15 226.70L3.08 227.16C2.66 229.32 2.17 231.49 1.75 233.77C1.48 235.10 1.33 236.39 1.14 237.72C0.95 239.05 0.80 240.34 0.76 241.82C0.84 241.67 2.05 241.25 2.47 241.25L2.66 241.29C2.85 241.41 2.89 241.67 3.15 241.86C3.23 241.90 3.34 241.94 3.46 241.94C3.65 241.94 3.76 241.94 3.84 241.90C3.95 241.90 4.33 241.67 4.75 241.56L5.02 241.52C5.28 241.52 5.21 241.82 5.43 242.01C5.55 240.76 5.62 239.51 5.78 238.18L5.89 237.26L12.99 235.78L13.87 237.11C14.59 238.29 15.43 239.35 16.49 240.27C16.57 240.15 16.57 240.11 16.68 240C16.87 239.89 16.95 239.77 16.98 239.62C16.98 239.43 17.02 239.24 17.06 238.97C17.10 238.78 17.17 238.63 17.33 238.48C17.36 238.44 17.40 238.44 17.52 238.44L17.93 238.48C18.35 238.48 18.43 238.14 18.54 238.02C18.54 237.91 18.58 237.80 18.66 237.68C18.69 237.53 18.85 237.30 18.96 237.11C19.11 236.92 19.15 236.85 19.30 236.81C19.34 236.77 19.38 236.77 19.49 236.77C19.53 236.77 19.64 236.81 19.76 236.88C19.04 236.16 18.31 235.36 17.63 234.41ZM6.84 232.21L7.33 229.93C7.64 228.72 7.64 227.16 7.87 225.98L8.51 222.56C8.81 223.74 9.08 226.47 9.50 227.65C9.69 228.37 9.95 229.06 10.22 229.82L10.94 231.49C10.52 231.57 10.11 231.64 9.69 231.76C8.70 231.94 7.79 232.06 6.84 232.21ZM37.16 240.34L37.12 239.39C37.01 239.09 36.86 238.75 36.86 238.44L36.86 238.29C36.86 238.02 37.08 237.91 37.12 237.72L37.16 237.30L37.12 236.96C37.08 236.77 36.86 236.16 36.86 235.74C36.86 235.40 37.05 235.55 37.16 235.25C36.48 235.25 35.79 235.29 35.07 235.36L34.88 235.40C34.39 235.44 33.85 235.44 33.28 235.44L31.61 235.44C30.51 235.44 29.45 235.40 28.38 235.52C28.27 234.95 28.31 234.34 28.31 233.73L28.31 224.61L28.80 219.25L28.31 215.83C27.96 216.29 28.12 217.35 28.12 218.46C27.85 218.19 27.62 218.19 27.51 217.77L27.47 217.39L27.51 216.59C27.51 216.37 27.47 216.18 27.39 216.02C27.36 215.91 27.32 215.83 27.20 215.83C27.09 215.83 27.05 216.14 26.94 216.33C26.82 216.48 26.67 216.56 26.48 216.56L25.95 216.52C25.38 216.52 24.85 216.29 24.24 216.29C24.05 216.29 23.82 216.33 23.60 216.40L23.60 236.16L23.48 237.15C23.22 237.15 23.10 237.15 22.91 237.26C22.84 237.30 22.80 237.34 22.80 237.38C22.80 237.49 23.06 237.61 23.18 237.72C23.37 237.87 23.37 238.10 23.37 238.37L23.37 238.63C23.41 238.90 23.41 239.16 23.41 239.43C23.41 240 23.41 240.53 23.60 240.99L29.45 240.49C30.62 240.38 31.76 240.38 32.94 240.34ZM52.78 236.16C51.79 235.90 50.84 235.71 49.93 235.59C48.71 235.40 48.29 235.40 47.11 235.29C46.39 235.25 45.59 235.21 44.87 235.21C44.87 233.84 44.95 232.55 45.06 231.22L45.10 230.54C45.75 230.50 46.43 230.46 47.04 230.35L52.51 229.93L52.47 229.17C52.36 228.87 52.21 228.56 52.21 228.22C52.21 227.88 52.36 227.80 52.40 227.54L52.40 227.35C52.40 227.20 52.40 227.01 52.36 226.85C52.36 226.74 52.13 225.98 52.13 225.52C52.13 225.33 52.17 225.22 52.24 225.22C51.79 225.26 51.29 225.30 50.72 225.41L48.41 225.56C47.61 225.56 46.81 225.52 45.94 225.64L45.40 225.68L45.40 221.80C45.75 221.80 46.09 221.84 46.43 221.88C47.84 221.88 49.01 222.03 50.19 222.14C51.07 222.18 51.83 222.14 52.70 222.26L54.26 222.33C54.18 221.99 53.57 222.07 53.12 221.95C53.23 221.76 53.23 221.50 53.50 221.46L54.07 221.50C54.18 221.50 54.26 221.50 54.30 221.46C54.37 221.42 54.41 221.38 54.41 221.34C54.41 221.23 54.26 221.15 54.22 221.04C54.18 220.96 54.18 220.85 54.18 220.74C54.18 220.55 54.22 220.36 54.26 220.09C54.37 219.75 54.41 219.41 54.52 218.99C54.60 218.68 54.64 218.38 54.64 218.08L54.64 217.89C53.76 217.70 52.97 217.58 52.09 217.43C51.29 217.32 50.42 217.28 49.62 217.24C48.60 217.20 47.61 217.16 46.58 217.16L44.42 217.16C44.42 216.82 44.42 216.44 44.30 216.18C44.26 216.02 44.19 215.95 44.15 215.95C44.04 215.95 44.04 216.33 43.88 216.52C43.77 216.67 43.66 216.75 43.50 216.75L43.09 216.71L42.93 216.71C42.63 216.71 42.36 216.63 42.02 216.59L41.68 216.56C41.41 216.56 41.19 216.59 41.00 216.71C41.03 217.73 41.07 218.65 41.07 219.67L41.07 221.76C41.07 223.40 40.96 225.07 40.92 226.74L40.65 233.05C40.62 234.15 40.58 235.21 40.58 236.39C40.58 237.76 40.62 239.13 40.65 240.49C40.69 240.46 40.77 240.46 40.84 240.46L41.15 240.49C41.19 240.49 41.26 240.46 41.38 240.42C41.68 240.15 41.91 239.85 42.25 239.85L42.90 240.38C43.01 240.42 43.09 240.46 43.12 240.46C43.24 240.46 43.39 240.38 43.50 240.34C43.62 240.34 43.92 240.11 44.34 240L44.64 239.92L45.02 239.85L45.37 239.85C46.89 239.85 47.57 240.08 50.19 240.53C51.10 240.68 52.09 240.76 53.04 241.03C53.69 241.22 54.26 241.22 54.87 241.37C54.90 241.03 54.11 240.95 53.54 240.76C53.73 240.61 53.80 240.42 54.07 240.30C54.33 240.30 54.56 240.49 54.83 240.49C54.90 240.49 54.94 240.49 54.98 240.46C55.09 240.42 55.13 240.38 55.13 240.34C55.13 240.23 55.02 240.15 54.90 240L54.87 239.81C54.87 239.54 54.98 239.32 55.02 239.13C55.13 238.71 55.28 238.40 55.44 237.99C55.55 237.68 55.59 237.38 55.59 237.04L55.59 236.88C54.64 236.62 53.73 236.43 52.78 236.16ZM52.24 225.22C52.28 225.22 52.28 225.22 52.28 225.22ZM72.61 236.66C71.58 234.57 70.56 232.55 69.49 230.58L67.40 226.66C67.59 226.21 67.75 225.75 68.01 225.26L68.20 224.80C68.92 223.17 69.68 221.57 70.56 220.01C71.20 218.91 71.81 217.73 72.34 216.78C72.08 216.94 71.77 217.28 71.51 217.77C71.28 218.15 70.98 218.57 70.67 219.06C70.63 218.87 70.52 218.76 70.52 218.49C70.52 218.42 70.56 218.30 70.60 218.15C70.63 217.89 70.86 217.62 71.01 217.32C71.28 217.01 71.39 216.78 71.51 216.52C71.55 216.48 71.55 216.40 71.55 216.33C71.55 216.25 71.51 216.21 71.47 216.21C71.36 216.21 71.13 216.40 70.94 216.52C70.90 216.56 70.82 216.56 70.71 216.56C70.44 216.56 70.33 216.33 70.06 216.21L69.23 215.42C68.96 215.11 68.62 214.92 68.24 214.85C67.18 216.56 66.23 218.19 65.35 219.86C65.05 220.36 64.78 220.89 64.52 221.46C63.95 220.43 63.45 219.48 62.96 218.42C62.69 217.70 62.39 217.13 62.08 216.56C61.78 215.95 61.48 215.30 61.21 214.66C61.21 215.23 61.51 215.65 61.63 216.10L62.20 217.66C61.93 217.54 61.67 217.58 61.40 217.09C61.21 216.90 61.10 216.56 60.91 216.14C60.79 215.80 60.64 215.42 60.49 215.23L60.30 215.00C60.26 215.00 60.22 215.08 60.22 215.23L60.22 215.68C60.11 216.14 59.73 216.10 59.46 216.21C59.12 216.37 58.70 216.37 58.28 216.40C57.87 216.44 57.56 216.59 57.30 216.94C58.66 220.47 60.30 223.78 62.08 226.97C61.48 228.37 60.87 229.82 60.30 231.30L59.42 233.50C58.70 235.21 58.06 236.85 57.33 238.52L58.02 238.75C58.44 238.71 58.66 238.59 58.93 238.59C59.04 238.59 59.20 238.63 59.31 238.71C59.46 238.82 59.46 239.20 59.58 239.39C59.69 239.54 59.88 239.66 60.22 239.70L61.17 239.70C61.48 239.73 61.63 239.85 61.63 240.11C61.63 240.15 61.59 240.30 61.67 240.38C62.24 239.13 62.73 237.87 63.19 236.54C63.76 235.02 64.36 233.58 65.01 232.10L66.53 234.95C67.94 237.53 69.15 240.11 70.22 242.70C70.37 242.43 70.71 242.62 70.90 242.36C71.09 241.94 71.24 241.44 71.66 241.41C71.93 241.41 72.19 241.67 72.38 241.79C72.65 241.79 72.84 241.71 73.03 241.52C73.14 241.48 73.37 241.06 73.67 240.80C73.86 240.68 74.01 240.61 74.13 240.61C74.32 240.61 74.32 241.06 74.62 241.06C74.05 239.58 73.37 238.10 72.61 236.66ZM83.40 213.78C83.06 213.21 82.45 212.76 81.99 212.26C81.77 212.07 81.61 211.88 81.50 211.69L81.46 211.47C81.42 211.39 81.39 211.35 81.27 211.35L80.89 211.62C80.74 211.62 80.55 211.50 80.40 211.39C80.59 211.12 80.66 210.93 80.82 210.74C80.55 211.01 80.25 211.05 79.98 211.31C79.64 211.73 79.26 212.04 78.95 212.34L78.04 213.56C77.78 213.90 77.51 214.32 77.17 214.62C76.90 214.81 76.67 214.92 76.52 215.19C76.75 215.19 77.43 216.02 77.55 216.14C77.66 216.33 77.85 216.48 77.97 216.59L78.42 216.82C78.69 217.01 78.84 217.28 78.99 217.54C79.14 217.81 79.37 217.89 79.49 218.04C79.98 217.62 80.40 217.13 80.82 216.67C81.16 216.25 81.50 215.95 81.84 215.53C82.41 214.92 82.83 214.24 83.40 213.78ZM97.31 215.34L97.15 215.27C96.39 215.15 95.52 215.08 94.65 215.08L93.32 215.08C92.90 215.19 92.52 215.19 92.18 215.30C91.53 215.42 90.96 215.61 90.39 215.80C89.78 216.02 89.29 216.25 88.87 216.52C88.30 216.82 87.96 217.09 87.54 217.51C87.39 217.66 86.06 219.18 85.95 219.63L85.49 220.85C85.38 221.27 85.34 221.69 85.30 222.14C85.30 222.56 85.41 222.98 85.45 223.40L85.87 224.61C86.25 225.41 86.71 226.13 87.28 226.78C87.85 227.50 88.42 227.96 88.98 228.53C89.17 228.72 89.55 229.06 89.97 229.36L90.66 229.93C90.77 230.16 92.37 231.53 92.94 232.10C93.51 232.70 93.96 233.31 94.38 233.92C94.84 234.53 95.14 235.10 95.25 235.59C95.29 235.86 95.33 236.01 95.33 236.20L95.33 236.39C95.33 236.66 95.29 236.85 95.18 236.96L94.91 237.26L93.96 237.76C93.66 237.91 93.16 237.91 92.71 238.02C92.25 238.14 91.72 238.21 91.15 238.33C90.58 238.33 90.09 238.37 89.52 238.40L87.85 238.40C87.96 238.48 88.00 238.56 88.00 238.63L87.96 238.75C87.96 238.78 87.96 239.01 88.07 239.13C88.23 239.28 88.53 239.39 88.80 239.54C88.98 239.66 89.17 239.81 89.17 239.92L88.98 240.08C88.83 240.19 88.72 240.23 88.68 240.23L88.15 240.46C88.07 240.53 88.04 240.61 88.04 240.72C88.04 240.80 88.07 240.91 88.19 241.06C88.19 241.14 88.30 241.22 88.53 241.33C88.64 241.48 88.98 241.71 89.02 241.82C89.14 242.17 88.26 241.94 88.26 242.47L90.16 242.47C90.96 242.36 91.61 242.36 92.33 242.24C93.05 242.13 93.73 242.05 94.49 241.90C95.22 241.79 95.98 241.63 96.77 241.22C97.08 241.18 97.38 241.03 97.69 240.87C97.84 240.84 97.91 240.76 98.07 240.65C98.18 240.65 98.18 240.57 98.29 240.53C98.41 240.53 98.48 240.42 98.52 240.38C99.02 240.04 99.40 239.70 99.81 239.24C100.23 238.82 100.38 238.37 100.65 237.95L100.69 237.83C100.80 237.26 100.88 236.73 100.88 236.28C100.88 235.82 100.80 235.36 100.69 234.91C100.50 234.53 100.35 234.11 100.19 233.69C99.78 232.93 99.32 232.17 98.83 231.45C98.26 230.73 97.61 230.12 97.00 229.40L95.33 227.80L94.15 226.70C93.89 226.44 93.58 226.17 93.24 225.94C92.67 225.33 92.25 224.84 91.83 224.35C91.45 223.78 91.23 223.32 91.15 222.98C91.04 222.75 91.00 222.48 91.00 222.14C91.00 221.95 91.00 221.80 91.04 221.72C91.15 221.27 92.06 219.98 92.18 219.86L92.67 219.52C92.97 219.41 93.24 219.29 93.58 219.25C93.85 219.14 94.19 219.06 94.61 219.03L95.14 219.03C95.86 219.03 96.58 219.06 97.38 219.25L97.23 219.10C96.47 218.84 95.71 218.80 95.29 218.80L94.38 218.80C94.04 218.84 93.66 218.80 93.39 218.91C93.51 218.80 93.54 218.76 93.58 218.65C93.70 218.49 93.77 218.34 94.19 218.30L94.87 218.27L95.67 218.30C96.24 218.34 96.81 218.42 97.23 218.42L97.72 218.49C97.72 218.46 97.69 218.42 97.57 218.34C97.42 218.23 97.00 218.11 96.85 218.00C96.51 217.89 96.47 217.70 96.47 217.58L96.66 217.16C96.66 216.97 96.81 216.90 96.93 216.75L97.27 216.29C97.38 216.14 97.46 215.99 97.50 215.83C97.50 215.68 97.46 215.46 97.31 215.34ZM116.84 239.73L116.84 239.96C116.84 240.08 116.91 240.19 117.03 240.30C117.14 240.42 117.52 240.84 117.71 241.14C117.75 241.25 117.82 241.29 117.82 241.41C117.82 241.71 117.33 241.56 116.87 241.98L120.52 241.67C121.77 241.52 122.69 241.60 123.98 241.14C127.17 240 127.74 238.63 128.35 238.06C129.07 237.42 129.87 236.73 130.21 235.93C130.59 235.06 131.16 234.26 131.65 233.27C132.22 232.13 132.03 230.73 132.03 229.32C132.03 227.77 131.84 226.32 131.50 224.99C131.05 223.28 130.44 221.99 129.49 220.74C128.65 219.67 127.82 218.68 126.64 217.96C123.79 216.21 122.69 215.57 119.00 215.65C117.48 215.76 117.25 215.76 117.25 215.80C117.25 215.83 117.63 215.83 118.09 215.87C118.96 215.91 119.69 215.91 120.86 216.06C120.60 216.18 120.56 216.29 120.29 216.33C120.18 216.40 119.88 216.48 119.38 216.52L119.08 216.56L117.90 216.56C117.18 216.59 116.76 216.56 116.34 216.59L115.89 216.67L115.47 216.78C115.47 216.90 116.23 216.90 116.49 217.05C116.80 217.16 116.87 217.32 116.91 217.43C116.91 217.51 116.87 217.58 116.84 217.70L116.34 217.73L114.48 217.66C114.21 217.66 114.06 217.70 113.80 217.81L114.52 227.42C114.40 227.84 114.48 228.18 114.52 228.53L114.86 233.31C115.05 235.63 115.32 237.87 115.58 240.15L116.46 240.04C116.57 239.96 116.72 239.85 116.84 239.73ZM126.87 229.10C126.87 230.84 127.02 231.87 126.41 233.05C126.07 233.73 125.57 234.68 125.04 235.25C124.28 236.09 123.94 236.43 122.80 236.73C121.89 236.88 121.36 236.96 120.33 237.07L120.22 236.16C120.10 235.29 120.10 234.45 119.99 233.58L119.38 225.49C119.38 224.88 119.31 224.19 119.27 223.55L119.00 220.24C121.36 220.24 123.86 221.50 125.00 222.83C125.61 223.51 125.84 224.42 126.14 225.18C126.90 226.93 126.87 228.49 126.87 229.10ZM140.32 218.38L140.13 218.49C139.21 219.22 138.42 220.17 137.77 221.04C137.16 222.07 136.63 223.02 136.21 224.04C135.83 225.07 135.53 226.13 135.30 227.23C135.19 228.11 135.11 228.91 135.11 229.78L135.15 230.54C135.19 231.72 135.38 232.82 135.72 233.92C135.91 234.53 136.10 235.02 136.40 235.59C136.71 236.16 137.05 236.77 137.47 237.23C137.88 237.72 138.30 238.21 138.87 238.67C139.48 239.09 140.09 239.35 140.66 239.62C141.38 239.89 141.95 240.11 142.60 240.15L142.82 240.15L142.94 240.19C143.32 240.27 143.66 240.30 144.00 240.30C144.23 240.30 144.38 240.30 144.50 240.27C145.29 240.23 146.02 240.11 146.70 239.92L147.23 239.81L147.65 239.66C148.11 239.54 148.45 239.35 148.87 239.16C149.59 238.78 150.27 238.37 150.84 237.87C151.41 237.38 151.94 236.81 152.36 236.20C153.31 234.98 153.88 233.81 154.37 232.40C154.83 231.15 155.06 229.74 155.17 228.37L155.21 227.39C155.21 226.93 155.17 226.44 155.13 225.98C155.06 225.11 154.91 224.31 154.68 223.51L154.56 223.17C154.37 222.52 153.99 221.80 153.69 221.15C153.27 220.36 152.74 219.60 152.17 218.95C151.83 218.61 151.53 218.38 151.11 218.08L150.58 217.58L149.97 217.28C149.55 217.01 149.06 216.71 148.49 216.59C148.07 216.48 147.57 216.37 147.08 216.37L145.48 216.37L144.23 216.67C143.51 216.86 142.94 216.94 142.48 217.05C142.56 217.09 142.60 217.16 142.60 217.20L142.63 217.58C142.63 217.73 142.67 217.81 142.75 217.85L143.58 218.27C143.77 218.34 143.93 218.46 143.96 218.57L143.96 218.84C143.96 218.95 143.74 219.03 143.55 219.14C143.28 219.33 143.13 219.41 143.01 219.52C142.98 219.56 142.94 219.67 142.94 219.79L142.94 219.94C143.05 220.05 143.09 220.13 143.13 220.24C143.13 220.32 143.28 220.43 143.58 220.55C143.85 220.74 144.00 220.81 144.15 221.08C144.19 221.12 144.27 221.19 144.31 221.31C144.31 221.46 144.31 221.53 144.27 221.57C144.27 221.69 143.85 221.88 144.50 221.84L145.41 221.57C145.75 221.50 146.02 221.46 146.24 221.46C146.51 221.42 146.62 221.38 146.78 221.38L147.16 221.42L147.65 221.65L147.88 221.84C147.99 221.88 148.07 221.95 148.18 222.07L148.68 222.56C149.09 223.13 149.51 223.70 149.78 224.42L149.85 224.69C150.04 225.37 150.16 226.06 150.20 226.74L150.20 227.31C150.20 228.79 149.93 230.24 149.36 231.57C148.94 232.44 148.52 233.01 148.03 233.58C147.76 233.84 147.50 234.07 147.16 234.26C146.89 234.49 146.62 234.64 146.28 234.72L146.17 234.79C145.90 234.83 145.86 234.87 145.75 234.87C145.56 234.98 145.41 235.02 145.14 235.06C144.72 235.10 144.38 235.06 144.04 235.17C143.62 235.14 143.32 235.10 143.01 234.98C142.75 234.95 142.48 234.83 142.25 234.68C141.99 234.57 141.84 234.38 141.65 234.19C141.46 234.00 141.23 233.77 141.04 233.43C140.77 233.08 140.70 232.67 140.54 232.21C140.43 231.94 140.35 231.68 140.32 231.38C140.20 230.88 140.16 230.39 140.16 229.82C140.16 229.55 140.16 229.25 140.20 228.98C140.32 228.11 140.35 227.27 140.62 226.47C140.96 225.45 141.42 224.50 141.99 223.62C142.60 222.75 143.24 222.03 144.04 221.65C143.58 221.53 142.90 222.22 142.25 222.86C142.06 223.17 141.84 223.43 141.57 223.74C141.30 224.08 141.04 224.46 140.85 224.88C140.81 224.69 140.77 224.50 140.77 224.35L140.77 224.19C140.77 223.93 140.85 223.70 140.96 223.47C141.15 223.02 141.49 222.56 141.99 222.14C142.25 221.95 142.44 221.72 142.63 221.53C142.90 221.38 143.05 221.23 143.17 221.04C143.43 220.85 143.47 220.81 143.47 220.70C143.47 220.66 143.43 220.66 143.36 220.66C143.09 220.66 142.56 220.96 142.44 221.00C142.33 221.00 142.25 221.04 142.14 221.04C142.03 221.04 141.91 221.00 141.80 220.89L141.61 220.43C141.46 220.28 141.38 220.05 141.34 219.90L141.15 219.25L141.11 218.95C141.08 218.80 141.00 218.68 140.92 218.65C140.81 218.46 140.62 218.38 140.32 218.38ZM173.75 240.34L173.71 239.39C173.60 239.09 173.45 238.75 173.45 238.44L173.45 238.29C173.45 238.02 173.68 237.91 173.71 237.72L173.75 237.30L173.71 236.96C173.68 236.77 173.45 236.16 173.45 235.74C173.45 235.40 173.64 235.55 173.75 235.25C173.07 235.25 172.38 235.29 171.66 235.36L171.47 235.40C170.98 235.44 170.45 235.44 169.88 235.44L168.21 235.44C167.10 235.44 166.04 235.40 164.98 235.52C164.86 234.95 164.90 234.34 164.90 233.73L164.90 224.61L165.39 219.25L164.90 215.83C164.56 216.29 164.71 217.35 164.71 218.46C164.44 218.19 164.22 218.19 164.10 217.77L164.06 217.39L164.10 216.59C164.10 216.37 164.06 216.18 163.99 216.02C163.95 215.91 163.91 215.83 163.80 215.83C163.68 215.83 163.65 216.14 163.53 216.33C163.42 216.48 163.27 216.56 163.08 216.56L162.54 216.52C161.97 216.52 161.44 216.29 160.83 216.29C160.64 216.29 160.42 216.33 160.19 216.40L160.19 236.16L160.07 237.15C159.81 237.15 159.69 237.15 159.50 237.26C159.43 237.30 159.39 237.34 159.39 237.38C159.39 237.49 159.66 237.61 159.77 237.72C159.96 237.87 159.96 238.10 159.96 238.37L159.96 238.63C160.00 238.90 160.00 239.16 160.00 239.43C160.00 240 160.00 240.53 160.19 240.99L166.04 240.49C167.22 240.38 168.36 240.38 169.54 240.34ZM191.53 240.34L191.50 239.39C191.38 239.09 191.23 238.75 191.23 238.44L191.23 238.29C191.23 238.02 191.46 237.91 191.50 237.72L191.53 237.30L191.50 236.96C191.46 236.77 191.23 236.16 191.23 235.74C191.23 235.40 191.42 235.55 191.53 235.25C190.85 235.25 190.17 235.29 189.44 235.36L189.25 235.40C188.76 235.44 188.23 235.44 187.66 235.44L185.99 235.44C184.89 235.44 183.82 235.40 182.76 235.52C182.64 234.95 182.68 234.34 182.68 233.73L182.68 224.61L183.18 219.25L182.68 215.83C182.34 216.29 182.49 217.35 182.49 218.46C182.23 218.19 182.00 218.19 181.88 217.77L181.85 217.39L181.88 216.59C181.88 216.37 181.85 216.18 181.77 216.02C181.73 215.91 181.69 215.83 181.58 215.83C181.47 215.83 181.43 216.14 181.31 216.33C181.20 216.48 181.05 216.56 180.86 216.56L180.33 216.52C179.76 216.52 179.22 216.29 178.62 216.29C178.43 216.29 178.20 216.33 177.97 216.40L177.97 236.16L177.86 237.15C177.59 237.15 177.48 237.15 177.29 237.26C177.21 237.30 177.17 237.34 177.17 237.38C177.17 237.49 177.44 237.61 177.55 237.72C177.74 237.87 177.74 238.10 177.74 238.37L177.74 238.63C177.78 238.90 177.78 239.16 177.78 239.43C177.78 240 177.78 240.53 177.97 240.99L183.82 240.49C185.00 240.38 186.14 240.38 187.32 240.34ZM205.44 215.34L205.29 215.27C204.53 215.15 203.65 215.08 202.78 215.08L201.45 215.08C201.03 215.19 200.65 215.19 200.31 215.30C199.67 215.42 199.10 215.61 198.53 215.80C197.92 216.02 197.42 216.25 197.01 216.52C196.44 216.82 196.09 217.09 195.68 217.51C195.52 217.66 194.19 219.18 194.08 219.63L193.62 220.85C193.51 221.27 193.47 221.69 193.43 222.14C193.43 222.56 193.55 222.98 193.59 223.40L194.00 224.61C194.38 225.41 194.84 226.13 195.41 226.78C195.98 227.50 196.55 227.96 197.12 228.53C197.31 228.72 197.69 229.06 198.11 229.36L198.79 229.93C198.91 230.16 200.50 231.53 201.07 232.10C201.64 232.70 202.10 233.31 202.51 233.92C202.97 234.53 203.27 235.10 203.39 235.59C203.43 235.86 203.46 236.01 203.46 236.20L203.46 236.39C203.46 236.66 203.43 236.85 203.31 236.96L203.05 237.26L202.10 237.76C201.79 237.91 201.30 237.91 200.84 238.02C200.39 238.14 199.86 238.21 199.29 238.33C198.72 238.33 198.22 238.37 197.65 238.40L195.98 238.40C196.09 238.48 196.13 238.56 196.13 238.63L196.09 238.75C196.09 238.78 196.09 239.01 196.21 239.13C196.36 239.28 196.66 239.39 196.93 239.54C197.12 239.66 197.31 239.81 197.31 239.92L197.12 240.08C196.97 240.19 196.85 240.23 196.82 240.23L196.28 240.46C196.21 240.53 196.17 240.61 196.17 240.72C196.17 240.80 196.21 240.91 196.32 241.06C196.32 241.14 196.44 241.22 196.66 241.33C196.78 241.48 197.12 241.71 197.16 241.82C197.27 242.17 196.40 241.94 196.40 242.47L198.30 242.47C199.10 242.36 199.74 242.36 200.46 242.24C201.19 242.13 201.87 242.05 202.63 241.90C203.35 241.79 204.11 241.63 204.91 241.22C205.21 241.18 205.52 241.03 205.82 240.87C205.97 240.84 206.05 240.76 206.20 240.65C206.31 240.65 206.31 240.57 206.43 240.53C206.54 240.53 206.62 240.42 206.66 240.38C207.15 240.04 207.53 239.70 207.95 239.24C208.37 238.82 208.52 238.37 208.78 237.95L208.82 237.83C208.94 237.26 209.01 236.73 209.01 236.28C209.01 235.82 208.94 235.36 208.82 234.91C208.63 234.53 208.48 234.11 208.33 233.69C207.91 232.93 207.45 232.17 206.96 231.45C206.39 230.73 205.74 230.12 205.14 229.40L203.46 227.80L202.29 226.70C202.02 226.44 201.72 226.17 201.38 225.94C200.81 225.33 200.39 224.84 199.97 224.35C199.59 223.78 199.36 223.32 199.29 222.98C199.17 222.75 199.13 222.48 199.13 222.14C199.13 221.95 199.13 221.80 199.17 221.72C199.29 221.27 200.20 219.98 200.31 219.86L200.81 219.52C201.11 219.41 201.38 219.29 201.72 219.25C201.98 219.14 202.32 219.06 202.74 219.03L203.27 219.03C204.00 219.03 204.72 219.06 205.52 219.25L205.36 219.10C204.60 218.84 203.84 218.80 203.43 218.80L202.51 218.80C202.17 218.84 201.79 218.80 201.53 218.91C201.64 218.80 201.68 218.76 201.72 218.65C201.83 218.49 201.91 218.34 202.32 218.30L203.01 218.27L203.81 218.30C204.38 218.34 204.95 218.42 205.36 218.42L205.86 218.49C205.86 218.46 205.82 218.42 205.71 218.34C205.55 218.23 205.14 218.11 204.98 218.00C204.64 217.89 204.60 217.70 204.60 217.58L204.79 217.16C204.79 216.97 204.95 216.90 205.06 216.75L205.40 216.29C205.52 216.14 205.59 215.99 205.63 215.83C205.63 215.68 205.59 215.46 205.44 215.34Z" fill="#ffffff" style="fill: rgb(255, 255, 255);"></path></g><g id="SvgjsG1056" rel="mainfill" name="symbol" xmlns:name="symbol_mainfill" transform="translate(-1.014941528837538,-13.4709619464931) scale(0.0690436915852875)" fill="#ffffff"><g fill="#ffffff"><path d="M536.3,741l-0.2,0.2c-5,5.9-10.8,9-16.8,9c-5.8,0-11.4-2.9-16.3-8.4v-80.6c15.1-1.3,26.8-11.9,26.8-24.8   c0-13.8-13.4-25-29.9-25s-29.9,11.2-29.9,25c0,12.9,11.8,23.6,26.8,24.8v80.6c-4.8,5.5-10.5,8.4-16.3,8.4c-6,0-11.8-3.1-16.8-9   l-0.2-0.2c-1.1-1.3-3-1.5-4.3-0.4c-1.3,1.1-1.5,3-0.4,4.3l0.2,0.2c6.1,7.2,13.7,11.2,21.5,11.2c6.9,0,13.6-3.1,19.3-8.9   c5.7,5.7,12.4,8.9,19.3,8.9c7.8,0,15.4-4,21.5-11.2l0.2-0.2c1.1-1.3,0.9-3.2-0.4-4.3C539.3,739.6,537.4,739.8,536.3,741z    M497.8,628c0-3.7,3.6-6.7,8-6.7c4.4,0,8,3,8,6.7c0,3.7-3.6,6.7-8,6.7C501.4,634.7,497.8,631.7,497.8,628z" fill="#ffffff" style="fill: rgb(255, 255, 255);"></path><path d="M450.9,663.6c1.6-0.1,2.9-1.8,2.8-3.9c-0.1-2-1.5-3.6-3-3.6l-0.1,0c-1.6,0.1-2.9,1.8-2.8,3.9c0.1,2,1.5,3.6,3,3.6   L450.9,663.6z" fill="#ffffff" style="fill: rgb(255, 255, 255);"></path><path d="M483.2,687.9l0.1,0c1.6-0.1,2.9-1.8,2.8-3.9c-0.1-2-1.5-3.6-3-3.6l-0.1,0c-1.6,0.1-2.9,1.8-2.8,3.9   C480.3,686.3,481.6,687.9,483.2,687.9z" fill="#ffffff" style="fill: rgb(255, 255, 255);"></path><path d="M483.2,730.3l0.1,0c1.6-0.1,2.9-1.8,2.8-3.9c-0.1-2-1.5-3.6-3-3.6l-0.1,0c-1.6,0.1-2.9,1.8-2.8,3.9   C480.3,728.7,481.6,730.3,483.2,730.3z" fill="#ffffff" style="fill: rgb(255, 255, 255);"></path><path d="M549.5,661.1l-0.1,0c-1.6,0-2.9,1.6-3,3.6c-0.1,2.1,1.1,3.9,2.8,3.9l0.1,0c1.6,0,2.9-1.6,3-3.6   C552.3,663,551.1,661.2,549.5,661.1z" fill="#ffffff" style="fill: rgb(255, 255, 255);"></path><path d="M528.6,685.4c-1.6,0-2.9,1.6-3,3.6c-0.1,2.1,1.1,3.9,2.8,3.9l0.1,0c1.6,0,2.9-1.6,3-3.6c0.1-2.1-1.1-3.9-2.8-3.9   L528.6,685.4z" fill="#ffffff" style="fill: rgb(255, 255, 255);"></path><path d="M536.8,725.3l0.1,0c1.6,0,2.9-1.6,3-3.6c0.1-2.1-1.1-3.9-2.8-3.9l-0.1,0c-1.6,0-2.9,1.6-3,3.6   C533.9,723.4,535.2,725.2,536.8,725.3z" fill="#ffffff" style="fill: rgb(255, 255, 255);"></path><path d="M569.7,671.5L569.7,671.5c-1.1,0-2.1,1.1-2.1,2.5c-0.1,1.4,0.8,2.6,1.9,2.7l0.1,0c1.1,0,2-1.1,2-2.5   C571.6,672.8,570.8,671.6,569.7,671.5z" fill="#ffffff" style="fill: rgb(255, 255, 255);"></path><path d="M555.7,687.9L555.7,687.9c-1.1,0-2.1,1.1-2.1,2.5c-0.1,1.4,0.8,2.6,1.9,2.7l0.1,0c1.1,0,2-1.1,2-2.5   C557.7,689.2,556.8,688,555.7,687.9z" fill="#ffffff" style="fill: rgb(255, 255, 255);"></path><path d="M561.4,709.7L561.4,709.7c-1.1,0-2.1,1.1-2.1,2.5c-0.1,1.4,0.8,2.6,1.9,2.7l0.1,0c1.1,0,2-1.1,2-2.5   C563.4,711,562.5,709.8,561.4,709.7z" fill="#ffffff" style="fill: rgb(255, 255, 255);"></path><path d="M443.7,718.5L443.7,718.5c-1.1,0-2.1,1.1-2.1,2.5c-0.1,1.4,0.8,2.6,1.9,2.7l0.1,0c1.1,0,2-1.1,2-2.5   C445.6,719.8,444.8,718.6,443.7,718.5z" fill="#ffffff" style="fill: rgb(255, 255, 255);"></path><path d="M459.5,704.8c0.1-1.4-0.8-2.6-1.9-2.7l-0.1,0c-1.1,0-2,1.1-2,2.5c-0.1,1.4,0.8,2.6,1.9,2.7l0.1,0   C458.5,707.2,459.4,706.1,459.5,704.8z" fill="#ffffff" style="fill: rgb(255, 255, 255);"></path><path d="M451.9,680.3L451.9,680.3c-1.1,0-2.1,1.1-2.1,2.5c-0.1,1.4,0.8,2.6,1.9,2.7l0.1,0c1.1,0,2-1.1,2-2.5   C453.9,681.6,453,680.4,451.9,680.3z" fill="#ffffff" style="fill: rgb(255, 255, 255);"></path><path d="M970.4,663.4c0,0-20.6,0.3-30.5-0.2c-19.9-1-38.7-11.3-38.7-11.3s22.8,3.5,41.7,2.8c18.9-0.7,42.2-17.8,42.2-17.8   s-36.1,1.7-60.1-0.2c-23.9-1.9-45.2-19.9-45.2-19.9s12.5,3.4,38.3,4.7c25.8,1.2,62.9-5,62.9-5s-35.3-6.4-64.4-25.1   c-19-12.2-21.2-24-21-29.5c1.3-8.2,2-16.5,2-24.8c0-57.3-33-110-88.2-151.4c25.3-53.1,62.7-179.7,51.5-187   c-33.9-22.2-144.2,63.4-182.5,122.1c-0.1,0.2-0.3,0.5-0.4,0.7c-53.6-16.3-114.1-25.5-178.2-25.5c-64,0-124.5,9.2-178.1,25.4   c-0.1-0.2-0.3-0.4-0.4-0.6c-38.4-58.7-148.6-144.2-182.5-122.1c-11.2,7.3,26.1,133.8,51.5,186.9c-55.2,41.4-88.3,94.1-88.3,151.4   c0,8.6,0.7,17.1,2.2,25.6c-0.1,5.8-2.9,17-21,28.6c-29.1,18.7-64.4,25.1-64.4,25.1s37.1,6.2,62.9,5c25.8-1.2,38.3-4.7,38.3-4.7   s-21.3,18-45.2,19.9c-23.9,1.9-60.1,0.2-60.1,0.2S38.1,654,57,654.7c18.9,0.7,41.7-2.8,41.7-2.8s-18.7,10.3-38.7,11.3   c-9.9,0.5-30.5,0.2-30.5,0.2s22.2,16.4,42.7,15c20.4-1.3,48.2-7.4,48.2-7.4s-13.6,11-29.4,13.4c-15.8,2.4-50,7.6-50,7.6   s18.1,12.5,35.1,12.6c17.1,0.1,38.6-5.9,38.6-5.9s-30.3,15.4-43.4,18.3c-14,3.1-29.5,3.8-29.5,3.8s13.6,6.7,45.2,8.2   c31.6,1.5,245.7,41.4,310.4,49.9c5.5,0.7,71.3,25.6,102.4,25.6c31.1,0,97-24.9,102.5-25.6c64.7-8.5,278.7-48.4,310.4-49.9   c31.6-1.5,45.2-8.2,45.2-8.2s-15.5-0.6-29.5-3.8c-13.1-2.9-43.4-18.3-43.4-18.3s21.5,6,38.6,5.9c17.1-0.1,35.1-12.6,35.1-12.6   s-34.2-5.2-50-7.6c-15.8-2.4-29.4-13.4-29.4-13.4s27.8,6,48.2,7.4C948.1,679.7,970.4,663.4,970.4,663.4z M586.4,563.2l0.4-0.4   c0.9-0.9,2.1-1.5,3.4-1.4l0,0c1.3,0.1,2.5,0.7,3.3,1.7l0.4,0.5c9.3,12.3,20.6,19.1,32.7,19.7c12.1,0.6,24.1-5,34.6-16.3l0.4-0.4   c1.7-1.8,4.4-1.9,6.2-0.2c1.8,1.7,1.9,4.4,0.2,6.2l-0.4,0.4c-12.3,13.2-26.7,19.8-41.5,19.1c-14.3-0.7-27.5-8.3-38.2-21.9   c-0.5-0.2-0.9-0.5-1.3-0.8C584.8,567.8,584.7,565,586.4,563.2z M332.2,566.4c1.8-1.7,4.6-1.6,6.2,0.2l0.4,0.4   c10.5,11.3,22.5,16.9,34.6,16.3c12.1-0.6,23.4-7.4,32.7-19.7l0.4-0.5c0.8-1,2-1.7,3.3-1.7l0,0c1.3-0.1,2.6,0.4,3.4,1.4l0.4,0.4   c1.7,1.8,1.6,4.6-0.2,6.2c-0.4,0.4-0.8,0.6-1.3,0.8c-10.7,13.6-23.9,21.1-38.2,21.9c-14.8,0.8-29.1-5.8-41.5-19.1l-0.4-0.4   C330.4,570.8,330.5,568,332.2,566.4z M244.7,345.4c-16.7-20.2-32.6-40.8-47.6-62c12.3,22.9,24.6,45.8,37,68.6   c-15.9-20.7-23.7-26.6-38-48.3c11.5,23.3,8.6,24.8,20.2,48.1c-13.4-18.2-13.5-16-25.5-35c6.6,18.7,7.4,30.9,9.9,43.7   c-17.9-43.2-41.7-132.8-34.2-137.7c23.9-15.6,102.2,56.9,129.7,98.5c-16.8-15.4-30.5-27.6-48.5-46.9c13.2,18.2,18,25.1,31,43.5   c-18.5-18.6-28.7-26.4-46-46c14.7,21.4,21.5,31.7,36,53.2c-17.8-19.2-35-38.9-51.6-59c13.9,21.9,27.7,43.9,41.4,66   c-15-16.9-39.8-51.1-53.7-68.7c10,16.4,30.2,49.7,40.1,66.1c-11.5-13.9-34-45.5-44.9-59.9C211.1,289,233.6,325.9,244.7,345.4z    M749.3,716c-0.2,0.3-0.6,0.5-0.9,0.5c-0.2,0-0.5-0.1-0.7-0.2c-0.2-0.2-22.6-16.1-57.4-26.9c-15.6-4.9-31.4-8-47-9.3   c0.5,2.4,0.7,4.9,0.7,7.4c0,3.3-0.4,6.5-1.3,9.6c14.9,2.4,29.8,6.5,44.5,12.4c32.2,12.8,52.3,29.7,52.5,29.8   c0.5,0.4,0.5,1.1,0.1,1.6c-0.2,0.3-0.5,0.4-0.9,0.4c-0.3,0-0.5-0.1-0.7-0.3c-0.2-0.2-20.2-16.8-52-29.5   c-14.5-5.8-29.3-9.9-44.1-12.2c-7.4,23.1-36,42.6-75.3,53.1c-3.8,1-7.1,3.4-9.1,6.8c-6.3,10.9-29.8,18.9-57.8,18.9   c-28,0-51.4-8.1-57.8-18.9c-2-3.4-5.3-5.8-9.1-6.8c-39.1-10.5-67.7-29.8-75.2-52.8c-14.2,2.4-28.5,6.4-42.5,12   c-31.9,12.7-51.8,29.3-52,29.5c-0.2,0.2-0.5,0.3-0.7,0.3c-0.3,0-0.7-0.1-0.9-0.4c-0.4-0.5-0.3-1.2,0.1-1.6   c0.2-0.2,20.3-17,52.5-29.8c14.1-5.6,28.4-9.7,42.8-12.1c-0.9-3.2-1.3-6.5-1.3-9.9c0-1.1,0.1-2.1,0.1-3.2   c-14.9,1.4-29.8,4.4-44.7,9.1c-34.8,10.8-57.2,26.8-57.4,26.9c-0.2,0.1-0.4,0.2-0.7,0.2c-0.4,0-0.7-0.2-0.9-0.5   c-0.4-0.5-0.3-1.2,0.3-1.6c0.2-0.2,22.8-16.3,58-27.2c15.2-4.7,30.5-7.8,45.7-9.2c0.8-5.2,2.6-10.3,5.4-15.1   c-15.3,0-31,1.9-46.6,5.5c-33.4,7.8-55.6,21.3-55.8,21.4c-0.2,0.1-0.4,0.2-0.6,0.2c-0.4,0-0.8-0.2-1-0.5c-0.3-0.5-0.2-1.3,0.4-1.6   c0.2-0.1,22.7-13.8,56.4-21.7c16-3.7,32-5.6,47.7-5.6c0.3,0,0.6,0,0.9,0c12.1-18.6,38.5-34,72.6-42.6c16-4.1,27.9-17.8,29.6-34.3   c1.1-10.6,1.3-22.1,1.3-33c0-24.8-21.9-63.9-21.9-63.9s21.4,11.7,28.4,29.3c7,17.6,10.2,30.6,10.2,30.6s1.1-28.7,0-37.8   c-1.1-9.1-3.2-31.9-3.2-31.9s8.1,16,11.4,29c3.2,13,4.2,33.6,4.2,33.6s2.5-26,3.5-32.4c1.7-10.2,8.3-27.6,8.3-27.6   s-1.6,18.3-2.1,30c-0.5,11.7,5.4,32.6,5.4,32.6s2.5-15.9,3.9-26.5c2.3-16.5,15.3-33.5,15.3-33.5s-5.4,18.9-7.1,33.8   c-1.2,10.2,0.2,32.1,0.2,32.1s3.8-21.2,9.6-35.2c6.1-14.5,24.6-26.1,24.6-26.1s-7.5,10.4-16.1,31.3c-8.6,20.9-7.5,45.6-4.8,66.5   c0,0.2,0,0.3,0.1,0.5c2.1,16,13.7,29.2,29.3,33.3c33.5,8.7,59.3,23.9,71.2,42.3c0.9,0,1.8,0,2.7,0c15.7,0,31.7,1.9,47.7,5.6   c33.8,7.9,56.2,21.5,56.4,21.7c0.3,0.2,0.4,0.4,0.5,0.7c0.1,0.3,0,0.6-0.1,0.9c-0.2,0.3-0.6,0.5-1,0.5c-0.2,0-0.4-0.1-0.6-0.2   c-0.2-0.1-22.4-13.6-55.8-21.4c-15.7-3.7-31.6-5.5-47-5.5c-0.4,0-0.8,0-1.3,0c2,3.5,3.5,7.2,4.5,10.9c16.1,1.3,32.3,4.5,48.4,9.5   c35.2,10.9,57.7,27.1,58,27.2C749.6,714.8,749.7,715.5,749.3,716z M783.8,351.8c11.6-23.3,8.7-24.7,20.2-48.1   c-14.3,21.7-22.1,27.6-38,48.3c12.4-22.9,24.7-45.7,37-68.6c-15.1,21.2-30.9,41.9-47.6,62c11.1-19.5,33.6-56.4,44.8-75.8   c-10.8,14.4-33.3,46-44.9,59.9c9.9-16.4,30.2-49.7,40.1-66.1c-13.9,17.7-38.7,51.8-53.7,68.7c13.7-22.1,27.5-44.1,41.4-66   c-16.5,20.1-33.7,39.8-51.6,59c14.5-21.6,21.3-31.8,36-53.2c-17.3,19.6-27.5,27.4-46,46c12.9-18.4,17.8-25.3,31-43.5   c-18,19.3-31.7,31.6-48.5,46.9c27.4-41.6,105.7-114.2,129.7-98.5c7.5,4.9-16.3,94.5-34.2,137.7c2.4-12.8,3.3-25,9.9-43.7   C797.2,335.8,797.1,333.6,783.8,351.8z" fill="#ffffff" style="fill: rgb(255, 255, 255);"></path></g></g></svg>